<svg width="358" height="61" viewBox="0 0 358 61" fill="none" xmlns="http://www.w3.org/2000/svg">
<path d="M22.5996 24.7812L32.4868 19.0625L42.374 24.7812V37.1719L32.4868 42.8906L22.5996 37.1719V24.7812Z" fill="#32251E"/>
<path d="M0 27.6406H7.5331L19.7744 6.67188H27.3075L30.1324 0H16.0078L0 27.6406Z" fill="#32251E"/>
<path d="M0 33.3594H7.5331L19.7744 54.3281H27.3075L30.1324 61H16.0078L0 33.3594Z" fill="#32251E"/>
<path d="M64.9727 27.6406H57.4396L45.1983 6.67188H35.3111L38.6068 0H48.9648L64.9727 27.6406Z" fill="#32251E"/>
<path d="M64.9727 33.3594H57.4396L45.1983 54.3281H35.3111L38.6068 61H48.9648L64.9727 33.3594Z" fill="#32251E"/>
<path d="M86.5 49.5631V16.9835H108.188V22.6627H93.3051V30.4258H107.073V36.1049H93.3051V43.8839H108.251V49.5631H86.5Z" fill="#32251E"/>
<path d="M139.345 16.9835V49.5631H133.467L119.463 29.0577H119.228V49.5631H112.423V16.9835H118.395L132.288 37.473H132.571V16.9835H139.345Z" fill="#32251E"/>
<path d="M143.967 22.6627V16.9835H170.402V22.6627H160.548V49.5631H153.822V22.6627H143.967Z" fill="#32251E"/>
<path d="M203.814 33.2733C203.814 36.8261 203.149 39.8486 201.818 42.3408C200.498 44.8331 198.696 46.7367 196.412 48.0518C194.138 49.3563 191.581 50.0085 188.742 50.0085C185.882 50.0085 183.315 49.3509 181.041 48.0359C178.767 46.7208 176.971 44.8172 175.65 42.3249C174.33 39.8327 173.67 36.8155 173.67 33.2733C173.67 29.7205 174.33 26.698 175.65 24.2057C176.971 21.7135 178.767 19.8151 181.041 18.5107C183.315 17.1956 185.882 16.5381 188.742 16.5381C191.581 16.5381 194.138 17.1956 196.412 18.5107C198.696 19.8151 200.498 21.7135 201.818 24.2057C203.149 26.698 203.814 29.7205 203.814 33.2733ZM196.914 33.2733C196.914 30.9719 196.574 29.0312 195.893 27.451C195.222 25.8708 194.274 24.6724 193.048 23.8558C191.822 23.0391 190.387 22.6308 188.742 22.6308C187.097 22.6308 185.662 23.0391 184.436 23.8558C183.21 24.6724 182.256 25.8708 181.575 27.451C180.905 29.0312 180.57 30.9719 180.57 33.2733C180.57 35.5746 180.905 37.5154 181.575 39.0956C182.256 40.6758 183.21 41.8742 184.436 42.6908C185.662 43.5074 187.097 43.9157 188.742 43.9157C190.387 43.9157 191.822 43.5074 193.048 42.6908C194.274 41.8742 195.222 40.6758 195.893 39.0956C196.574 37.5154 196.914 35.5746 196.914 33.2733Z" fill="#32251E"/>
<path d="M228.736 16.9835H235.541V38.1411C235.541 40.5167 234.981 42.5954 233.859 44.3771C232.749 46.1587 231.193 47.548 229.192 48.5449C227.191 49.5312 224.859 50.0244 222.198 50.0244C219.526 50.0244 217.19 49.5312 215.189 48.5449C213.187 47.548 211.631 46.1587 210.521 44.3771C209.41 42.5954 208.855 40.5167 208.855 38.1411V16.9835H215.66V37.5525C215.66 38.7934 215.927 39.8963 216.462 40.8614C217.006 41.8265 217.771 42.5848 218.756 43.1362C219.741 43.6877 220.888 43.9634 222.198 43.9634C223.518 43.9634 224.665 43.6877 225.64 43.1362C226.625 42.5848 227.384 41.8265 227.919 40.8614C228.464 39.8963 228.736 38.7934 228.736 37.5525V16.9835Z" fill="#32251E"/>
<path d="M241.14 49.5631V16.9835H253.839C256.27 16.9835 258.344 17.4236 260.062 18.3039C261.791 19.1735 263.106 20.409 264.007 22.0104C264.919 23.6012 265.374 25.4731 265.374 27.6259C265.374 29.7894 264.913 31.6507 263.991 33.2097C263.069 34.758 261.734 35.9458 259.984 36.773C258.245 37.6003 256.139 38.0139 253.666 38.0139H245.163V32.4779H252.566C253.865 32.4779 254.944 32.2976 255.803 31.937C256.662 31.5764 257.302 31.0356 257.721 30.3144C258.15 29.5932 258.365 28.6971 258.365 27.6259C258.365 26.5442 258.15 25.6321 257.721 24.8898C257.302 24.1474 256.657 23.5853 255.788 23.2035C254.928 22.8111 253.844 22.6149 252.534 22.6149H247.945V49.5631H241.14ZM258.522 34.7368L266.522 49.5631H259.009L251.183 34.7368H258.522Z" fill="#32251E"/>
<path d="M275.731 49.5631H268.439L279.551 16.9835H288.32L299.416 49.5631H292.124L284.061 24.4284H283.81L275.731 49.5631ZM275.276 36.7571H292.501V42.134H275.276V36.7571Z" fill="#32251E"/>
<path d="M323.12 27.5146C322.9 26.7404 322.591 26.0564 322.193 25.4625C321.794 24.858 321.307 24.3489 320.731 23.9353C320.165 23.5111 319.516 23.1876 318.782 22.9649C318.059 22.7422 317.258 22.6308 316.378 22.6308C314.733 22.6308 313.287 23.0445 312.04 23.8717C310.804 24.6989 309.84 25.9026 309.148 27.4828C308.457 29.0524 308.111 30.9719 308.111 33.2415C308.111 35.511 308.451 37.4412 309.132 39.032C309.813 40.6228 310.777 41.8371 312.024 42.6749C313.271 43.5021 314.743 43.9157 316.44 43.9157C317.981 43.9157 319.296 43.64 320.385 43.0885C321.485 42.5264 322.324 41.7363 322.9 40.7182C323.487 39.7001 323.78 38.4964 323.78 37.1071L325.163 37.3139H316.865V32.1279H330.334V36.2322C330.334 39.0956 329.736 41.556 328.542 43.6135C327.348 45.6603 325.703 47.2405 323.607 48.354C321.512 49.457 319.112 50.0085 316.409 50.0085C313.392 50.0085 310.741 49.335 308.457 47.9882C306.173 46.6307 304.391 44.7058 303.113 42.2136C301.845 39.7107 301.211 36.7412 301.211 33.3051C301.211 30.6644 301.589 28.31 302.343 26.242C303.108 24.1633 304.177 22.4028 305.549 20.9605C306.922 19.5182 308.519 18.4205 310.343 17.6676C312.166 16.9146 314.141 16.5381 316.268 16.5381C318.091 16.5381 319.788 16.8085 321.36 17.3494C322.931 17.8797 324.325 18.6326 325.54 19.6083C326.766 20.584 327.767 21.7453 328.542 23.0922C329.317 24.4284 329.815 25.9026 330.035 27.5146H323.12Z" fill="#32251E"/>
<path d="M335.445 49.5631V16.9835H357.134V22.6627H342.25V30.4258H356.018V36.1049H342.25V43.8839H357.197V49.5631H335.445Z" fill="#32251E"/>
</svg>
